<?xml version="1.0" encoding="UTF-8" standalone="no"?>
<svg
   xmlns:dc="http://purl.org/dc/elements/1.1/"
   xmlns:cc="http://creativecommons.org/ns#"
   xmlns:rdf="http://www.w3.org/1999/02/22-rdf-syntax-ns#"
   xmlns:svg="http://www.w3.org/2000/svg"
   xmlns="http://www.w3.org/2000/svg"
   xmlns:sodipodi="http://sodipodi.sourceforge.net/DTD/sodipodi-0.dtd"
   xmlns:inkscape="http://www.inkscape.org/namespaces/inkscape"
   class="board"
   width="1150"
   height="750"
   viewBox="0 0 71.875 83.333333"
   preserveAspectRatio="none"
   version="1.1"
   id="svg2149"
   sodipodi:docname="hill-MsIJIOdJ.svg"
   inkscape:version="0.92.3 (2405546, 2018-03-11)">
  <metadata
     id="metadata2155">
    <rdf:RDF>
      <cc:Work
         rdf:about="">
        <dc:format>image/svg+xml</dc:format>
        <dc:type
           rdf:resource="http://purl.org/dc/dcmitype/StillImage" />
        <dc:title></dc:title>
      </cc:Work>
    </rdf:RDF>
  </metadata>
  <defs
     id="defs2153" />
  <sodipodi:namedview
     pagecolor="#ffffff"
     bordercolor="#666666"
     borderopacity="1"
     objecttolerance="10"
     gridtolerance="10"
     guidetolerance="10"
     inkscape:pageopacity="0"
     inkscape:pageshadow="2"
     inkscape:window-width="1853"
     inkscape:window-height="1025"
     id="namedview2151"
     showgrid="false"
     inkscape:zoom="0.70710678"
     inkscape:cx="568.83529"
     inkscape:cy="456.84689"
     inkscape:window-x="67"
     inkscape:window-y="27"
     inkscape:window-maximized="1"
     inkscape:current-layer="svg2149" />
  <clipPath
     id="cut-off-bottom">
    <rect
       x="0"
       y="0"
       width="100"
       height="100"
       id="rect2124" />
  </clipPath>
  <g
     class="hills"
     clip-path="url(#cut-off-bottom)"
     id="g2146"
     transform="matrix(-0.72236275,0,0,0.83832867,72.069282,-0.010374)">
    <rect
       id="bg-rect"
       x="0"
       y="0"
       width="100"
       height="100"
       style="fill:#000000" />
    <path
       d="M 0,16 C 13,16 13,1.7507413 26,1.7507413 38.5,1.7507413 38.5,31 51,31 63.5,31 63.5,49 76,49 88,49 88,24 100,24 v 76 H 0 Z"
       transform="translate(0,22)"
       id="path2132"
       inkscape:connector-curvature="0"
       style="fill:#e27c00;fill-opacity:1"
       sodipodi:nodetypes="cssscccc" />
    <path
       d="m 0,19 c 18.5,0 18.5,14 37,14 16.5,0 16.5,-21 33,-21 15,0 15,26 30,26 v 62 H 0 Z"
       id="path2128"
       inkscape:connector-curvature="0"
       style="fill:#ff006f;fill-opacity:1" />
    <path
       d="M 0,20 C 13.5,20 13.5,45 27,45 40,45 39.162068,38.590637 52.162068,38.590637 64.662068,38.590637 65.5,42 78,42 89,42 88.999999,27 100,27 v 73 H 0 Z"
       transform="translate(0,11)"
       id="path2130"
       inkscape:connector-curvature="0"
       style="fill:#66b04b;fill-opacity:1"
       sodipodi:nodetypes="cssscccc" />
    <path
       d="M 0,21 C 13.5,21 13.25528,11.249259 26.75528,11.249259 39.25528,11.249259 39.5,32 52,32 64.5,32 64.5,58 77,58 88.5,58 88.5,37 100,37 v 63 H 0 Z"
       transform="translate(0,33)"
       id="path2134"
       inkscape:connector-curvature="0"
       style="fill:#1fa446;fill-opacity:1"
       sodipodi:nodetypes="cssscccc" />
    <path
       d="M 0,17 C 14,17 14,37.563303 28,37.563303 39.5,37.563303 39.5,22 51,22 64.5,22 64.261476,7.364483 77.761476,7.364483 c 11,0 10.993804,15.638482 21.993804,15.638482 L 100,100 H 0 Z"
       transform="translate(0,44)"
       id="path2136"
       inkscape:connector-curvature="0"
       style="fill:#ff4510;fill-opacity:1"
       sodipodi:nodetypes="cssscccc" />
    <path
       d="M 12.270051,46.581564 C 38.270051,46.581564 26,28 52,28 76,28 76.601473,1.8854317 100.60148,1.8854317 L 100,100 H 0 Z"
       transform="translate(0,55)"
       id="path2138"
       inkscape:connector-curvature="0"
       style="fill:#ff009a;fill-opacity:1"
       sodipodi:nodetypes="cscccc" />
    <path
       d="M 100,100 C 33.333333,56 66.666667,78 100,100 Z"
       transform="translate(0,66)"
       id="path2140"
       inkscape:connector-curvature="0"
       style="fill:#05857d"
       sodipodi:nodetypes="cc" />
    <path
       d="m 0,24 c 18.5,0 18.5,16 37,16 16.5,0 16.5,-10 33,-10 15,0 15,21 30,21 v 49 H 0 Z"
       transform="translate(0,77)"
       id="path2142"
       inkscape:connector-curvature="0"
       style="fill:#e8d09f" />
  </g>
  <g
     id="debug-layer"
     transform="translate(0,-16.666667)" />
</svg>
