<?xml version="1.0" encoding="UTF-8" standalone="no"?>
<svg
   xmlns:dc="http://purl.org/dc/elements/1.1/"
   xmlns:cc="http://creativecommons.org/ns#"
   xmlns:rdf="http://www.w3.org/1999/02/22-rdf-syntax-ns#"
   xmlns:svg="http://www.w3.org/2000/svg"
   xmlns="http://www.w3.org/2000/svg"
   xmlns:sodipodi="http://sodipodi.sourceforge.net/DTD/sodipodi-0.dtd"
   xmlns:inkscape="http://www.inkscape.org/namespaces/inkscape"
   class="board"
   width="1150"
   height="750"
   viewBox="0 0 71.875 83.333333"
   preserveAspectRatio="none"
   version="1.1"
   id="svg2149"
   sodipodi:docname="9E_Kang_The_MsIJIOdJ_Hills.svg"
   inkscape:version="0.92.3 (2405546, 2018-03-11)">
  <metadata
     id="metadata2155">
    <rdf:RDF>
      <cc:Work
         rdf:about="">
        <dc:format>image/svg+xml</dc:format>
        <dc:type
           rdf:resource="http://purl.org/dc/dcmitype/StillImage" />
        <dc:title />
      </cc:Work>
    </rdf:RDF>
  </metadata>
  <defs
     id="defs2153" />
  <sodipodi:namedview
     pagecolor="#ffffff"
     bordercolor="#666666"
     borderopacity="1"
     objecttolerance="10"
     gridtolerance="10"
     guidetolerance="10"
     inkscape:pageopacity="0"
     inkscape:pageshadow="2"
     inkscape:window-width="1853"
     inkscape:window-height="1025"
     id="namedview2151"
     showgrid="false"
     inkscape:zoom="1"
     inkscape:cx="541.2026"
     inkscape:cy="296.84689"
     inkscape:window-x="67"
     inkscape:window-y="27"
     inkscape:window-maximized="1"
     inkscape:current-layer="g2146" />
  <clipPath
     id="cut-off-bottom">
    <rect
       x="0"
       y="0"
       width="100"
       height="100"
       id="rect2124" />
  </clipPath>
  <g
     class="hills"
     clip-path="url(#cut-off-bottom)"
     id="g2146"
     transform="matrix(-0.72236275,0,0,0.83832867,72.069282,-0.010374)">
    <rect
       id="bg-rect"
       x="0"
       y="0"
       width="100"
       height="100"
       style="fill:#000000" />
    <path
       d="M 0,16 C 8.8469619,16.132539 13.001128,10.083231 24.010002,10.100688 38.154964,10.123119 38.5,31 51,31 63.5,31 63.5,49 76,49 88,49 88,24 100,24 v 76 H 0 Z"
       transform="translate(0,22)"
       id="path2132"
       inkscape:connector-curvature="0"
       style="fill:#e27c00;fill-opacity:1"
       sodipodi:nodetypes="cssscccc" />
    <path
       d="m 0,19 c 11.751313,0.132539 14.347274,22.416398 29.299575,22.615025 18.92233,0.251364 19.096589,-23.778611 35.595649,-24.048394 16.211303,-0.265077 18.802775,30.968854 34.494948,31.233931 L 100,100 H 0 Z"
       id="path2128"
       inkscape:connector-curvature="0"
       style="fill:#ff006f;fill-opacity:1"
       sodipodi:nodetypes="csscccc" />
    <path
       d="m 0,20 c 13.5,0 13.5,25 27,25 13,0 13.892501,-4.42128 26.892501,-4.42128 12.5,0 10.828804,-4.27789 23.328804,-4.27789 11,0 12.470867,-13.276995 23.470865,-13.276995 L 100,100 H 0 Z"
       transform="translate(0,11)"
       id="path2130"
       inkscape:connector-curvature="0"
       style="fill:#66b04b;fill-opacity:1"
       sodipodi:nodetypes="cssscccc" />
    <path
       d="m -0.08652163,6.9508828 c 13.49999963,0 18.01396963,19.2752652 31.51396963,19.2752652 12.5,0 15.167325,7.761935 27.667325,7.761935 C 71.594773,33.988083 64.5,58 77,58 88.5,58 88.5,37 100,37 v 63 H 0 Z"
       transform="translate(0,33)"
       id="path2134"
       inkscape:connector-curvature="0"
       style="fill:#1fa446;fill-opacity:1"
       sodipodi:nodetypes="cssscccc" />
    <path
       d="m 0,17 c 14,0 13.740435,17.249832 23.846962,17.382371 11.499579,0.150808 15.22043,-24.8410221 26.72043,-24.8410221 13.5,0 8.589308,-17.153755 22.089308,-17.153755 11,0 18.607707,22.7955791 41.11508,23.8558901 L 100,100 H 0 Z"
       transform="translate(0,44)"
       id="path2136"
       inkscape:connector-curvature="0"
       style="fill:#ff4510;fill-opacity:1"
       sodipodi:nodetypes="cssscccc" />
    <path
       d="m -20.089037,59.040215 c 25.9999997,0 30.774709,-28.787055 56.774709,-28.787055 12,0 14.366633,-17.229917 28.756601,-16.90091 16.363307,0.374125 16.929644,-28.166712 35.418767,-28.564329 L 100,100 H 0 Z"
       id="path2138"
       inkscape:connector-curvature="0"
       style="fill:#ff009a;fill-opacity:1"
       sodipodi:nodetypes="csscccc"
       transform="translate(0,55)" />
    <path
       d="M 100,100 C 33.333333,56 66.666667,78 100,100 Z"
       transform="translate(0,66)"
       id="path2140"
       inkscape:connector-curvature="0"
       style="fill:#05857d"
       sodipodi:nodetypes="cc" />
    <path
       d="m 0,24 c 18.5,0 18.5,16 37,16 16.5,0 16.5,-10 33,-10 15,0 15,21 30,21 v 49 H 0 Z"
       transform="translate(0,77)"
       id="path2142"
       inkscape:connector-curvature="0"
       style="fill:#e8d09f" />
  </g>
  <g
     id="debug-layer"
     transform="translate(0,-16.666667)" />
</svg>
