<svg class="board" width="1600" height="900" viewBox="0 0 100 100" preserveAspectRatio="none">
  <clipPath id="cut-off-bottom">
    <rect x="0" y="0" width="100" height="100"></rect>
  </clipPath>
  <g class="hills" clip-path="url(#cut-off-bottom)">
    <rect id="bg-rect" x="0" y="0" width="100" height="100" fill="#59256a"></rect>
  <path d="M 0,15 C 18.5,15
  18.5,37
  37,37
C 52,37
  52,58
  67,58
C 83.5,58
  83.5,36
  100,36
L100,100 L0,100Z" transform="translate(0, 0)" fill="rgb(148, 94, 124)"></path><path d="M 0,17 C 14,17
  14,36
  28,36
C 40.5,36
  40.5,53
  53,53
C 65,53
  65,77
  77,77
C 88.5,77
  88.5,99
  100,99
L100,100 L0,100Z" transform="translate(0, 33)" fill="rgb(233, 120, 95)"></path><path d="M 0,18 C 27,18
  27,41
  54,41
C 77,41
  77,17
  100,17
L100,100 L0,100Z" transform="translate(0, 66)" fill="rgb(244, 128, 103)"></path></g>
  <g id="debug-layer"></g>
</svg>