<svg class="board" width="1600" height="900" viewBox="0 0 100 100" preserveAspectRatio="none">
  <clipPath id="cut-off-bottom">
    <rect x="0" y="0" width="100" height="100"></rect>
  </clipPath>
  <g class="hills" clip-path="url(#cut-off-bottom)">
    <rect id="bg-rect" x="0" y="0" width="100" height="100" fill="#713b4c"></rect>
  <path d="M 0,23 C 13,23
  13,51
  26,51
C 39,51
  39,75
  52,75
C 65,75
  65,93
  78,93
C 89,93
  89,112
  100,112
L100,100 L0,100Z" transform="translate(0, 0)" fill="rgb(115, 98, 92)"></path><path d="M 0,20 C 13.5,20
  13.5,31
  27,31
C 40,31
  40,59
  53,59
C 65,59
  65,41
  77,41
C 88.5,41
  88.5,21
  100,21
L100,100 L0,100Z" transform="translate(0, 33)" fill="rgb(138, 101, 88)"></path><path d="M 0,18 C 8.5,18
  8.5,38
  17,38
C 25.5,38
  25.5,61
  34,61
C 42.5,61
  42.5,79
  51,79
C 59,79
  59,95
  67,95
C 75.5,95
  75.5,110
  84,110
C 92,110
  92,129
  100,129
L100,100 L0,100Z" transform="translate(0, 66)" fill="rgb(249, 193, 206)"></path></g>
  <g id="debug-layer"></g>
</svg>