<svg class="board" width="1600" height="900" viewBox="0 0 100 100" preserveAspectRatio="none">
  <clipPath id="cut-off-bottom">
    <rect x="0" y="0" width="100" height="100"></rect>
  </clipPath>
  <g class="hills" clip-path="url(#cut-off-bottom)">
    <rect id="bg-rect" x="0" y="0" width="100" height="100" fill="black"></rect>
  <path d="M 0,22 C 8.5,22
  8.5,45
  17,45
C 25.5,45
  25.5,63
  34,63
C 42.5,63
  42.5,38
  51,38
C 59,38
  59,11
  67,11
C 75.5,11
  75.5,40
  84,40
C 92,40
  92,16
  100,16
L100,100 L0,100Z" transform="translate(0, 0)" fill="rgb(87, 79, 78)"></path><path d="M 0,15 C 27.5,15
  27.5,39
  55,39
C 77.5,39
  77.5,17
  100,17
L100,100 L0,100Z" transform="translate(0, 33)" fill="rgb(249, 232, 161)"></path><path d="M 0,18 C 17.5,18
  17.5,1
  35,1
C 52.5,1
  52.5,19
  70,19
C 85,19
  85,38
  100,38
L100,100 L0,100Z" transform="translate(0, 66)" fill="rgb(221, 64, 39)"></path></g>
  <g id="debug-layer"></g>
</svg>