<svg class="board" width="1600" height="900" viewBox="0 0 100 100" preserveAspectRatio="none">
  <clipPath id="cut-off-bottom">
    <rect x="0" y="0" width="100" height="100"></rect>
  </clipPath>
  <g class="hills" clip-path="url(#cut-off-bottom)">
    <rect id="bg-rect" x="0" y="0" width="100" height="100" fill="#4f4086"></rect>
  <path d="M 0,14 C 14,14
  14,38
  28,38
C 40,38
  40,17
  52,17
C 64,17
  64,44
  76,44
C 88,44
  88,23
  100,23
L100,100 L0,100Z" transform="translate(0, 0)" fill="rgb(164, 171, 80)"></path><path d="M 0,10 C 18.5,10
  18.5,38
  37,38
C 52,38
  52,11
  67,11
C 83.5,11
  83.5,40
  100,40
L100,100 L0,100Z" transform="translate(0, 33)" fill="rgb(243, 181, 95)"></path><path d="M 0,23 C 17,23
  17,0
  34,0
C 51.5,0
  51.5,29
  69,29
C 84.5,29
  84.5,41
  100,41
L100,100 L0,100Z" transform="translate(0, 66)" fill="rgb(199, 209, 79)"></path></g>
  <g id="debug-layer"></g>
</svg>