<svg class="board" width="1600" height="900" viewBox="0 0 100 100" preserveAspectRatio="none">
  <clipPath id="cut-off-bottom">
    <rect x="0" y="0" width="100" height="100"></rect>
  </clipPath>
  <g class="hills" clip-path="url(#cut-off-bottom)">
    <rect id="bg-rect" x="0" y="0" width="100" height="100" fill="black"></rect>
  <path d="M 0,13 C 13,13
  13,37
  26,37
C 39.5,37
  39.5,57
  53,57
C 64.5,57
  64.5,30
  76,30
C 88,30
  88,56
  100,56
L100,100 L0,100Z" transform="translate(0, 0)" fill="rgb(154, 160, 83)"></path><path d="M 0,24 C 13,24
  13,52
  26,52
C 39,52
  39,68
  52,68
C 64.5,68
  64.5,89
  77,89
C 88.5,89
  88.5,77
  100,77
L100,100 L0,100Z" transform="translate(0, 20)" fill="rgb(164, 162, 167)"></path><path d="M 0,21 C 17.5,21
  17.5,46
  35,46
C 52,46
  52,30
  69,30
C 84.5,30
  84.5,3
  100,3
L100,100 L0,100Z" transform="translate(0, 40)" fill="rgb(140, 44, 59)"></path><path d="M 0,18 C 18.5,18
  18.5,43
  37,43
C 52,43
  52,64
  67,64
C 83.5,64
  83.5,37
  100,37
L100,100 L0,100Z" transform="translate(0, 60)" fill="rgb(247, 185, 98)"></path><path d="M 0,22 C 17,22
  17,10
  34,10
C 50.5,10
  50.5,25
  67,25
C 83.5,25
  83.5,0
  100,0
L100,100 L0,100Z" transform="translate(0, 80)" fill="rgb(171, 36, 57)"></path></g>
  <g id="debug-layer"></g>
</svg>