<svg class="board" width="1600" height="900" viewBox="0 0 100 100" preserveAspectRatio="none">
  <clipPath id="cut-off-bottom">
    <rect x="0" y="0" width="100" height="100"></rect>
  </clipPath>
  <g class="hills" clip-path="url(#cut-off-bottom)">
    <rect id="bg-rect" x="0" y="0" width="100" height="100" fill="#b984af"></rect>
  <path d="M 0,10 C 14,10
  14,21
  28,21
C 40,21
  40,7
  52,7
C 64,7
  64,35
  76,35
C 88,35
  88,14
  100,14
L100,100 L0,100Z" transform="translate(0, 0)" fill="rgb(112, 114, 78)"></path><path d="M 0,25 C 27.5,25
  27.5,39
  55,39
C 77.5,39
  77.5,52
  100,52
L100,100 L0,100Z" transform="translate(0, 6)" fill="rgb(204, 156, 113)"></path><path d="M 0,11 C 18.5,11
  18.5,29
  37,29
C 52.5,29
  52.5,12
  68,12
C 84,12
  84,35
  100,35
L100,100 L0,100Z" transform="translate(0, 12)" fill="rgb(170, 188, 180)"></path><path d="M 0,12 C 14,12
  14,1
  28,1
C 40.5,1
  40.5,26
  53,26
C 65,26
  65,37
  77,37
C 88.5,37
  88.5,19
  100,19
L100,100 L0,100Z" transform="translate(0, 18)" fill="rgb(187, 166, 26)"></path><path d="M 0,17 C 18.5,17
  18.5,40
  37,40
C 52,40
  52,22
  67,22
C 83.5,22
  83.5,40
  100,40
L100,100 L0,100Z" transform="translate(0, 24)" fill="rgb(213, 161, 115)"></path><path d="M 0,23 C 26,23
  26,52
  52,52
C 76,52
  76,31
  100,31
L100,100 L0,100Z" transform="translate(0, 30)" fill="rgb(216, 163, 116)"></path><path d="M 0,22 C 26.5,22
  26.5,40
  53,40
C 76.5,40
  76.5,11
  100,11
L100,100 L0,100Z" transform="translate(0, 36)" fill="rgb(139, 141, 73)"></path><path d="M 0,22 C 18.5,22
  18.5,45
  37,45
C 52,45
  52,63
  67,63
C 83.5,63
  83.5,34
  100,34
L100,100 L0,100Z" transform="translate(0, 42)" fill="rgb(173, 203, 190)"></path><path d="M 0,17 C 14,17
  14,27
  28,27
C 40,27
  40,55
  52,55
C 64,55
  64,79
  76,79
C 88,79
  88,106
  100,106
L100,100 L0,100Z" transform="translate(0, 48)" fill="rgb(217, 190, 15)"></path><path d="M 0,18 C 8.5,18
  8.5,37
  17,37
C 25.5,37
  25.5,63
  34,63
C 42.5,63
  42.5,46
  51,46
C 59,46
  59,58
  67,58
C 75.5,58
  75.5,36
  84,36
C 92,36
  92,60
  100,60
L100,100 L0,100Z" transform="translate(0, 54)" fill="rgb(153, 156, 70)"></path><path d="M 0,15 C 27.5,15
  27.5,32
  55,32
C 77.5,32
  77.5,10
  100,10
L100,100 L0,100Z" transform="translate(0, 60)" fill="rgb(158, 161, 68)"></path><path d="M 0,19 C 25.5,19
  25.5,45
  51,45
C 75.5,45
  75.5,58
  100,58
L100,100 L0,100Z" transform="translate(0, 66)" fill="rgb(231, 174, 123)"></path><path d="M 0,11 C 14,11
  14,29
  28,29
C 40,29
  40,55
  52,55
C 64.5,55
  64.5,45
  77,45
C 88.5,45
  88.5,73
  100,73
L100,100 L0,100Z" transform="translate(0, 72)" fill="rgb(168, 172, 65)"></path><path d="M 0,18 C 8.5,18
  8.5,37
  17,37
C 25.5,37
  25.5,27
  34,27
C 42.5,27
  42.5,14
  51,14
C 59,14
  59,35
  67,35
C 75.5,35
  75.5,54
  84,54
C 92,54
  92,44
  100,44
L100,100 L0,100Z" transform="translate(0, 78)" fill="rgb(248, 216, 3)"></path><path d="M 0,12 C 17,12
  17,27
  34,27
C 52,27
  52,56
  70,56
C 85,56
  85,80
  100,80
L100,100 L0,100Z" transform="translate(0, 84)" fill="rgb(181, 222, 204)"></path></g>
  <g id="debug-layer"></g>
</svg>