<svg class="board" width="1600" height="900" viewBox="0 0 100 100" preserveAspectRatio="none">
  <clipPath id="cut-off-bottom">
    <rect x="0" y="0" width="100" height="100"></rect>
  </clipPath>
  <g class="hills" clip-path="url(#cut-off-bottom)">
    <rect id="bg-rect" x="0" y="0" width="100" height="100" fill="#4e1d4c"></rect>
  <path d="M 0,13 C 18,13
  18,39
  36,39
C 52.5,39
  52.5,56
  69,56
C 84.5,56
  84.5,45
  100,45
L100,100 L0,100Z" transform="translate(0, 0)" fill="rgb(30, 121, 15)"></path><path d="M 0,28 C 26,28
  26,53
  52,53
C 76,53
  76,25
  100,25
L100,100 L0,100Z" transform="translate(0, 33)" fill="rgb(110, 153, 40)"></path><path d="M 0,23 C 14,23
  14,45
  28,45
C 40.5,45
  40.5,68
  53,68
C 65.5,68
  65.5,41
  78,41
C 89,41
  89,28
  100,28
L100,100 L0,100Z" transform="translate(0, 66)" fill="rgb(255, 101, 0)"></path></g>
  <g id="debug-layer"></g>
</svg>