<svg class="board" width="1600" height="900" viewBox="0 0 100 100" preserveAspectRatio="none">
  <clipPath id="cut-off-bottom">
    <rect x="0" y="0" width="100" height="100"></rect>
  </clipPath>
  <g class="hills" clip-path="url(#cut-off-bottom)">
    <rect id="bg-rect" x="0" y="0" width="100" height="100" fill="#84565b"></rect>
  <path d="M 0,10 C 13,10
  13,33
  26,33
C 39,33
  39,19
  52,19
C 64,19
  64,32
  76,32
C 88,32
  88,4
  100,4
L100,100 L0,100Z" transform="translate(0, 0)" fill="rgb(160, 90, 130)"></path><path d="M 0,18 C 27,18
  27,0
  54,0
C 77,0
  77,22
  100,22
L100,100 L0,100Z" transform="translate(0, 50)" fill="rgb(245, 236, 194)"></path></g>
  <g id="debug-layer"></g>
</svg>