<svg class="board" width="1600" height="900" viewBox="0 0 100 100" preserveAspectRatio="none">
  <clipPath id="cut-off-bottom">
    <rect x="0" y="0" width="100" height="100"></rect>
  </clipPath>
  <g class="hills" clip-path="url(#cut-off-bottom)">
    <rect id="bg-rect" x="0" y="0" width="100" height="100" fill="black"></rect>
  <path d="M 0,11 C 13,11
  13,29
  26,29
C 38.5,29
  38.5,50
  51,50
C 64,50
  64,40
  77,40
C 88.5,40
  88.5,54
  100,54
L100,100 L0,100Z" transform="translate(0, 0)" fill="rgb(221, 212, 169)"></path><path d="M 0,16 C 8.5,16
  8.5,33
  17,33
C 25.5,33
  25.5,50
  34,50
C 42.5,50
  42.5,23
  51,23
C 59,23
  59,6
  67,6
C 75.5,6
  75.5,33
  84,33
C 92,33
  92,49
  100,49
L100,100 L0,100Z" transform="translate(0, 14)" fill="rgb(144, 94, 122)"></path><path d="M 0,26 C 8.5,26
  8.5,0
  17,0
C 25.5,0
  25.5,22
  34,22
C 42.5,22
  42.5,6
  51,6
C 59,6
  59,24
  67,24
C 75.5,24
  75.5,34
  84,34
C 92,34
  92,60
  100,60
L100,100 L0,100Z" transform="translate(0, 28)" fill="rgb(223, 115, 91)"></path><path d="M 0,11 C 17,11
  17,29
  34,29
C 51,29
  51,8
  68,8
C 84,8
  84,22
  100,22
L100,100 L0,100Z" transform="translate(0, 42)" fill="rgb(227, 150, 79)"></path><path d="M 0,12 C 18.5,12
  18.5,30
  37,30
C 52,30
  52,49
  67,49
C 83.5,49
  83.5,24
  100,24
L100,100 L0,100Z" transform="translate(0, 56)" fill="rgb(175, 88, 137)"></path><path d="M 0,29 C 18,29
  18,13
  36,13
C 52,13
  52,3
  68,3
C 84,3
  84,15
  100,15
L100,100 L0,100Z" transform="translate(0, 70)" fill="rgb(183, 88, 141)"></path><path d="M 0,27 C 13,27
  13,5
  26,5
C 38.5,5
  38.5,16
  51,16
C 64,16
  64,3
  77,3
C 88.5,3
  88.5,16
  100,16
L100,100 L0,100Z" transform="translate(0, 84)" fill="rgb(245, 236, 194)"></path></g>
  <g id="debug-layer"></g>
</svg>