<svg class="board" width="1600" height="900" viewBox="0 0 100 100" preserveAspectRatio="none">
  <clipPath id="cut-off-bottom">
    <rect x="0" y="0" width="100" height="100"></rect>
  </clipPath>
  <g class="hills" clip-path="url(#cut-off-bottom)">
    <rect id="bg-rect" x="0" y="0" width="100" height="100" fill="black"></rect>
  <path d="M 0,21 C 14,21
  14,50
  28,50
C 39.5,50
  39.5,38
  51,38
C 64,38
  64,65
  77,65
C 88.5,65
  88.5,50
  100,50
L100,100 L0,100Z" transform="translate(0, 0)" fill="rgb(196, 80, 48)"></path><path d="M 0,15 C 18.5,15
  18.5,0
  37,0
C 53.5,0
  53.5,17
  70,17
C 85,17
  85,2
  100,2
L100,100 L0,100Z" transform="translate(0, 20)" fill="rgb(213, 79, 42)"></path><path d="M 0,25 C 18,25
  18,7
  36,7
C 52,7
  52,29
  68,29
C 84,29
  84,39
  100,39
L100,100 L0,100Z" transform="translate(0, 40)" fill="rgb(155, 101, 47)"></path><path d="M 0,16 C 14,16
  14,3
  28,3
C 39.5,3
  39.5,18
  51,18
C 64,18
  64,32
  77,32
C 88.5,32
  88.5,46
  100,46
L100,100 L0,100Z" transform="translate(0, 60)" fill="rgb(50, 51, 52)"></path><path d="M 0,23 C 27.5,23
  27.5,3
  55,3
C 77.5,3
  77.5,31
  100,31
L100,100 L0,100Z" transform="translate(0, 80)" fill="rgb(248, 237, 67)"></path></g>
  <g id="debug-layer"></g>
</svg>