<svg class="board" width="1600" height="900" viewBox="0 0 100 100" preserveAspectRatio="none">
  <clipPath id="cut-off-bottom">
    <rect x="0" y="0" width="100" height="100"></rect>
  </clipPath>
  <g class="hills" clip-path="url(#cut-off-bottom)">
    <rect id="bg-rect" x="0" y="0" width="100" height="100" fill="black"></rect>
  <path d="M 0,26 C 13.5,26
  13.5,53
  27,53
C 39.5,53
  39.5,80
  52,80
C 64.5,80
  64.5,93
  77,93
C 88.5,93
  88.5,103
  100,103
L100,100 L0,100Z" transform="translate(0, 0)" fill="rgb(233, 223, 178)"></path><path d="M 0,17 C 14,17
  14,44
  28,44
C 40.5,44
  40.5,57
  53,57
C 64.5,57
  64.5,36
  76,36
C 88,36
  88,51
  100,51
L100,100 L0,100Z" transform="translate(0, 50)" fill="rgb(113, 80, 47)"></path></g>
  <g id="debug-layer"></g>
</svg>