<svg class="board" width="1600" height="900" viewBox="0 0 100 100" preserveAspectRatio="none">
  <clipPath id="cut-off-bottom">
    <rect x="0" y="0" width="100" height="100"></rect>
  </clipPath>
  <g class="hills" clip-path="url(#cut-off-bottom)">
    <rect id="bg-rect" x="0" y="0" width="100" height="100" fill="black"></rect>
  <path d="M 0,13 C 13,13
  13,32
  26,32
C 39,32
  39,53
  52,53
C 64,53
  64,79
  76,79
C 88,79
  88,108
  100,108
L100,100 L0,100Z" transform="translate(0, 0)" fill="rgb(220, 211, 169)"></path><path d="M 0,14 C 13,14
  13,31
  26,31
C 38.5,31
  38.5,48
  51,48
C 64,48
  64,59
  77,59
C 88.5,59
  88.5,72
  100,72
L100,100 L0,100Z" transform="translate(0, 12)" fill="rgb(150, 174, 110)"></path><path d="M 0,23 C 27,23
  27,12
  54,12
C 77,12
  77,36
  100,36
L100,100 L0,100Z" transform="translate(0, 24)" fill="rgb(115, 150, 76)"></path><path d="M 0,24 C 14,24
  14,51
  28,51
C 40,51
  40,33
  52,33
C 65,33
  65,58
  78,58
C 89,58
  89,42
  100,42
L100,100 L0,100Z" transform="translate(0, 36)" fill="rgb(218, 81, 42)"></path><path d="M 0,15 C 17,15
  17,32
  34,32
C 51.5,32
  51.5,49
  69,49
C 84.5,49
  84.5,27
  100,27
L100,100 L0,100Z" transform="translate(0, 48)" fill="rgb(123, 169, 71)"></path><path d="M 0,24 C 13,24
  13,1
  26,1
C 38.5,1
  38.5,19
  51,19
C 64,19
  64,40
  77,40
C 88.5,40
  88.5,51
  100,51
L100,100 L0,100Z" transform="translate(0, 60)" fill="rgb(127, 179, 68)"></path><path d="M 0,16 C 13,16
  13,40
  26,40
C 39,40
  39,65
  52,65
C 64.5,65
  64.5,55
  77,55
C 88.5,55
  88.5,41
  100,41
L100,100 L0,100Z" transform="translate(0, 72)" fill="rgb(242, 233, 190)"></path><path d="M 0,25 C 26.5,25
  26.5,51
  53,51
C 76.5,51
  76.5,67
  100,67
L100,100 L0,100Z" transform="translate(0, 84)" fill="rgb(175, 212, 114)"></path></g>
  <g id="debug-layer"></g>
</svg>