<svg class="board" width="1600" height="900" viewBox="0 0 100 100" preserveAspectRatio="none">
  <clipPath id="cut-off-bottom">
    <rect x="0" y="0" width="100" height="100"></rect>
  </clipPath>
  <g class="hills" clip-path="url(#cut-off-bottom)">
    <rect id="bg-rect" x="0" y="0" width="100" height="100" fill="black"></rect>
  <path d="M 0,27 C 14,27
  14,17
  28,17
C 40.5,17
  40.5,1
  53,1
C 65,1
  65,23
  77,23
C 88.5,23
  88.5,2
  100,2
L100,100 L0,100Z" transform="translate(0, 0)" fill="rgb(218, 209, 168)"></path><path d="M 0,18 C 14,18
  14,0
  28,0
C 40,0
  40,28
  52,28
C 64,28
  64,54
  76,54
C 88,54
  88,28
  100,28
L100,100 L0,100Z" transform="translate(0, 5)" fill="rgb(75, 74, 54)"></path><path d="M 0,24 C 14,24
  14,11
  28,11
C 39.5,11
  39.5,32
  51,32
C 64.5,32
  64.5,46
  78,46
C 89,46
  89,60
  100,60
L100,100 L0,100Z" transform="translate(0, 10)" fill="rgb(206, 157, 113)"></path><path d="M 0,14 C 18.5,14
  18.5,38
  37,38
C 53,38
  53,54
  69,54
C 84.5,54
  84.5,25
  100,25
L100,100 L0,100Z" transform="translate(0, 15)" fill="rgb(81, 80, 55)"></path><path d="M 0,23 C 18,23
  18,36
  36,36
C 53,36
  53,15
  70,15
C 85,15
  85,27
  100,27
L100,100 L0,100Z" transform="translate(0, 20)" fill="rgb(84, 83, 55)"></path><path d="M 0,29 C 17,29
  17,40
  34,40
C 52,40
  52,55
  70,55
C 85,55
  85,44
  100,44
L100,100 L0,100Z" transform="translate(0, 25)" fill="rgb(213, 161, 115)"></path><path d="M 0,28 C 17.5,28
  17.5,4
  35,4
C 52,4
  52,19
  69,19
C 84.5,19
  84.5,46
  100,46
L100,100 L0,100Z" transform="translate(0, 30)" fill="rgb(52, 50, 52)"></path><path d="M 0,12 C 27,12
  27,22
  54,22
C 77,22
  77,1
  100,1
L100,100 L0,100Z" transform="translate(0, 35)" fill="rgb(231, 221, 176)"></path><path d="M 0,10 C 14,10
  14,38
  28,38
C 40,38
  40,12
  52,12
C 64,12
  64,30
  76,30
C 88,30
  88,56
  100,56
L100,100 L0,100Z" transform="translate(0, 40)" fill="rgb(98, 95, 54)"></path><path d="M 0,11 C 13.5,11
  13.5,28
  27,28
C 39.5,28
  39.5,50
  52,50
C 64.5,50
  64.5,31
  77,31
C 88.5,31
  88.5,51
  100,51
L100,100 L0,100Z" transform="translate(0, 45)" fill="rgb(222, 168, 118)"></path><path d="M 0,26 C 18.5,26
  18.5,12
  37,12
C 52.5,12
  52.5,25
  68,25
C 84,25
  84,5
  100,5
L100,100 L0,100Z" transform="translate(0, 50)" fill="rgb(105, 102, 53)"></path><path d="M 0,22 C 17.5,22
  17.5,37
  35,37
C 52,37
  52,16
  69,16
C 84.5,16
  84.5,45
  100,45
L100,100 L0,100Z" transform="translate(0, 55)" fill="rgb(49, 55, 47)"></path><path d="M 0,28 C 10.5,28
  10.5,16
  21,16
C 31.5,16
  31.5,44
  42,44
C 51.5,44
  51.5,70
  61,70
C 71,70
  71,54
  81,54
C 90.5,54
  90.5,27
  100,27
L100,100 L0,100Z" transform="translate(0, 60)" fill="rgb(229, 172, 122)"></path><path d="M 0,14 C 27.5,14
  27.5,38
  55,38
C 77.5,38
  77.5,59
  100,59
L100,100 L0,100Z" transform="translate(0, 65)" fill="rgb(231, 174, 123)"></path><path d="M 0,28 C 26.5,28
  26.5,13
  53,13
C 76.5,13
  76.5,29
  100,29
L100,100 L0,100Z" transform="translate(0, 70)" fill="rgb(119, 115, 51)"></path><path d="M 0,12 C 17.5,12
  17.5,41
  35,41
C 51.5,41
  51.5,27
  68,27
C 84,27
  84,55
  100,55
L100,100 L0,100Z" transform="translate(0, 75)" fill="rgb(243, 233, 190)"></path><path d="M 0,17 C 25.5,17
  25.5,46
  51,46
C 75.5,46
  75.5,30
  100,30
L100,100 L0,100Z" transform="translate(0, 80)" fill="rgb(46, 59, 43)"></path><path d="M 0,15 C 27.5,15
  27.5,29
  55,29
C 77.5,29
  77.5,4
  100,4
L100,100 L0,100Z" transform="translate(0, 85)" fill="rgb(245, 236, 194)"></path></g>
  <g id="debug-layer"></g>
</svg>