<svg class="board" width="1600" height="900" viewBox="0 0 100 100" preserveAspectRatio="none">
  <clipPath id="cut-off-bottom">
    <rect x="0" y="0" width="100" height="100"></rect>
  </clipPath>
  <g class="hills" clip-path="url(#cut-off-bottom)">
    <rect id="bg-rect" x="0" y="0" width="100" height="100" fill="#6450a1"></rect>
  <path d="M 0,16 C 17,16
  17,41
  34,41
C 52,41
  52,66
  70,66
C 85,66
  85,89
  100,89
L100,100 L0,100Z" transform="translate(0, 0)" fill="rgb(208, 183, 19)"></path><path d="M 0,12 C 14,12
  14,34
  28,34
C 40.5,34
  40.5,63
  53,63
C 65,63
  65,45
  77,45
C 88.5,45
  88.5,19
  100,19
L100,100 L0,100Z" transform="translate(0, 50)" fill="rgb(67, 119, 66)"></path></g>
  <g id="debug-layer"></g>
</svg>