<svg class="board" width="1600" height="900" viewBox="0 0 100 100" preserveAspectRatio="none">
  <clipPath id="cut-off-bottom">
    <rect x="0" y="0" width="100" height="100"></rect>
  </clipPath>
  <g class="hills" clip-path="url(#cut-off-bottom)">
    <rect id="bg-rect" x="0" y="0" width="100" height="100" fill="#8c4c62"></rect>
  <path d="M 0,12 C 13,12
  13,32
  26,32
C 39.5,32
  39.5,17
  53,17
C 65.5,17
  65.5,33
  78,33
C 89,33
  89,16
  100,16
L100,100 L0,100Z" transform="translate(0, 0)" fill="rgb(43, 27, 75)"></path><path d="M 0,10 C 17.5,10
  17.5,32
  35,32
C 51.5,32
  51.5,14
  68,14
C 84,14
  84,36
  100,36
L100,100 L0,100Z" transform="translate(0, 50)" fill="rgb(255, 221, 0)"></path></g>
  <g id="debug-layer"></g>
</svg>