<svg class="board" width="1600" height="900" viewBox="0 0 100 100" preserveAspectRatio="none">
  <clipPath id="cut-off-bottom">
    <rect x="0" y="0" width="100" height="100"></rect>
  </clipPath>
  <g class="hills" clip-path="url(#cut-off-bottom)">
    <rect id="bg-rect" x="0" y="0" width="100" height="100" fill="#80719e"></rect>
  <path d="M 0,23 C 13.5,23
  13.5,10
  27,10
C 39.5,10
  39.5,24
  52,24
C 65,24
  65,34
  78,34
C 89,34
  89,15
  100,15
L100,100 L0,100Z" transform="translate(0, 0)" fill="rgb(178, 210, 211)"></path><path d="M 0,14 C 13.5,14
  13.5,35
  27,35
C 39.5,35
  39.5,10
  52,10
C 65,10
  65,24
  78,24
C 89,24
  89,37
  100,37
L100,100 L0,100Z" transform="translate(0, 50)" fill="rgb(0, 151, 141)"></path></g>
  <g id="debug-layer"></g>
</svg>