<svg class="board" width="1853" height="922" viewBox="0 0 1853 922" preserveAspectRatio="none">
  <g class="hills">
  <path d="M 0,248.94 C 250.16,248.94
  250.16,479.44
  500.31,479.44
C 741.2,479.44
  741.2,285.82
  982.09,285.82
C 1204.45,285.82
  1204.45,101.42
  1426.81,101.42
C 1639.9,101.42
  1639.9,230.5
  1853,230.5
L1853,922 L0,1853Z" transform="translate(0, 16)" fill="rgb(102, 176, 75)" class="outlined"></path><path d="M 0,92.2 C 250.16,92.2
  250.16,322.7
  500.31,322.7
C 731.93,322.7
  731.93,525.54
  963.56,525.54
C 1195.18,525.54
  1195.18,765.26
  1426.81,765.26
C 1639.9,765.26
  1639.9,663.84
  1853,663.84
L1853,922 L0,1853Z" transform="translate(0, 32)" fill="rgb(38, 113, 41)" class="outlined"></path><path d="M 0,221.28 C 324.27,221.28
  324.27,470.22
  648.55,470.22
C 954.29,470.22
  954.29,673.06
  1260.04,673.06
C 1556.52,673.06
  1556.52,940.44
  1853,940.44
L1853,922 L0,1853Z" transform="translate(0, 48)" fill="rgb(124, 180, 32)" class="outlined"></path><path d="M 0,193.62 C 342.81,193.62
  342.81,55.32
  685.61,55.32
C 982.09,55.32
  982.09,175.18
  1278.57,175.18
C 1565.78,175.18
  1565.78,341.14
  1853,341.14
L1853,922 L0,1853Z" transform="translate(0, 64)" fill="rgb(255, 0, 154)" class="outlined"></path><path d="M 0,147.52 C 259.42,147.52
  259.42,295.04
  518.84,295.04
C 750.47,295.04
  750.47,507.1
  982.09,507.1
C 1213.71,507.1
  1213.71,663.84
  1445.34,663.84
C 1649.17,663.84
  1649.17,820.58
  1853,820.58
L1853,922 L0,1853Z" transform="translate(0, 80)" fill="rgb(255, 0, 111)" class="outlined"></path><path d="M 0,138.3 C 259.42,138.3
  259.42,267.38
  518.84,267.38
C 731.93,267.38
  731.93,175.18
  945.03,175.18
C 1176.65,175.18
  1176.65,424.12
  1408.28,424.12
C 1630.64,424.12
  1630.64,608.52
  1853,608.52
L1853,922 L0,1853Z" transform="translate(0, 96)" fill="rgb(255, 7, 69)" class="outlined"></path></g>
  <g id="debug-layer"></g>
</svg>